<?xml version="1.0"?>
 <svg xmlns="http://www.w3.org/2000/svg" xmlns:xlink="http://www.w3.org/1999/xlink" width="133" height="68" viewBox="0 0 133 68"> <defs> <path id="logo-lumio-b" d="M97.5882319,14 C100.117809,14 101.705984,14.5736903 102.882462,15.434455 C102.941231,15.836023 103,16.1229446 103,16.5245125 C103,19.106501 101.058897,21 97.2942299,21 C93.7060265,21 92,19.9097897 92,17.7868452 C92,15.4917782 93.8824904,14 97.5882319,14 Z M39,6 C33.8400435,6.77990793 28.2000575,13.320009 24,21 C34.0200345,16.4399604 38.1000448,11.459835 39,6 Z M129,28.9135665 C126.641688,32.0677936 119.330827,34.2875328 110.192251,33.9370804 C108.836387,35.3972468 108.010962,37.4416042 108.010962,39.7197003 C108.010962,42.2313795 109.249021,43.2827366 111.017676,43.2827366 C113.19928,43.2827366 114.378436,41.2383792 114.378436,38.2010215 C114.378436,36.5069608 114.260473,35.6891867 114.024704,35.1636638 L114.319376,34.9300807 C116.206151,34.9300807 119.212865,35.572473 120.686849,36.3902471 C120.863714,37.2080212 120.922774,38.0841521 120.922774,38.7850569 C120.922774,44.8014155 117.974806,50 111.253602,50 C106.360113,50 102.58672,47.780572 101.938317,42.5818319 C99.3440801,47.3716071 96.2192463,50 93.3893979,50 C90.3823697,50 88.3188862,47.7220595 88.3188862,44.1005107 C88.3188862,43.5163197 88.4957517,41.9394396 88.7905799,39.8949265 C85.9016716,47.3132503 82.5999722,50 78.2961396,50 C75.4661341,50 73.992307,48.7735723 73.992307,45.9112851 C73.992307,41.7642134 77.0579238,39.0187956 77.0579238,36.682187 C77.0579238,36.0981516 76.8221555,35.6308299 75.9376708,35.6308299 C73.5206132,35.6308299 71.1621444,38.2593783 70.2778167,43.9836414 L70.2778167,45.6777021 C68.9806981,45.5608327 64.6178056,45.4439634 64.087209,45.5608327 L63.733478,45.093511 C63.5566125,44.2757369 63.4977096,43.4579628 63.4977096,42.6985456 C63.4977096,39.4276048 64.5,36.3902471 64.5,34.462759 C64.5,33.7033417 64.2051718,33.3528894 63.6745752,33.3528894 C62.3774566,33.3528894 59.7833764,36.1565084 58.427355,41.7642134 C59.0757572,43.7500584 59.960242,46.0865113 59.960242,47.8972857 C58.9579516,49.1822259 55.1256557,50 53.7696343,50 C52.4136129,50 52.2367473,49.766417 52.0008219,49.0071553 C51.8239564,48.4814768 51.234457,46.32025 50.8807259,42.9322843 C50.2321666,46.4369637 47.5199667,50 44.1004617,50 C40.2681658,50 38.2046823,48.2478937 39.089167,42.4649625 C37.6151829,47.6053458 34.4903491,50 31.2477096,50 C27.8280476,50 25.7056612,47.780572 25.7056612,43.0491536 C25.7056612,42.5233194 25.7056612,41.9977964 25.7645641,41.413761 C23.5831178,46.4954762 19.2791281,50 14.8573328,50 C10.9661341,50 8.43095676,47.4301196 8.43095676,41.1216655 C8.43095676,37.1495087 9.13841888,32.9439245 10.3766347,28.7966972 C7.31070369,29.5561144 4.06806426,30.3155316 0.471693771,31.0164364 L0,28.2710186 C4.24492979,27.3365308 8.0772257,26.3435305 11.4967307,25.3503746 C16.3313169,11.9742047 26.0593923,0 34.0777152,0 C37.556123,0 41.8601127,3.32929763 42.9213058,6.71726336 C41.1526505,14.8363362 36.0821388,20.6191118 21.4607315,25.5841132 C19.1022626,30.8995671 17.5693756,36.2733778 17.5693756,40.1870221 C17.5693756,42.0563089 18.2179349,43.0491536 19.5150536,43.0491536 C21.5785371,43.0491536 24.7622737,40.6543438 26.4131234,36.6238301 C27.2385482,32.9439245 28.7125323,28.7383403 31.3656724,24.591113 L31.837209,24.4158868 C34.3723864,24.4743992 37.556123,24.9999222 39.5018009,25.9345656 L39.5018009,26.4602442 C35.3157739,32.2430197 34.0186553,37.6168304 34.0186553,40.1286652 C34.0186553,42.4649625 34.90314,43.1075104 35.9643332,43.1075104 C37.3792574,43.1075104 38.2637422,41.5889872 38.9712043,37.3832474 C39.3838382,33.9370804 39.9144348,30.8412102 41.0346878,28.5631141 L41.5063816,28.3878879 C44.0415589,28.7966972 47.4610639,29.9065668 49.1709734,31.0164364 L49.347839,31.6589843 C48.2275859,37.0911519 46.8125046,39.5444742 45.5744459,44.3342494 C45.1027521,46.0281545 45.2796176,46.6707024 46.2230052,46.6707024 C47.9327576,46.6707024 49.8782785,42.8154149 50.6448005,39.4276048 C50.5858977,38.7850569 50.5858977,38.142509 50.5858977,37.4416042 C50.5858977,34.3458897 51.234457,28.4462448 52.2367473,26.3435305 C54.5950591,26.285018 57.8966014,26.5187567 60.2550702,27.1613046 L60.2550702,27.6869832 C60.0191448,29.8482099 59.19372,32.1261504 58.5451607,34.3458897 C60.9623753,28.4462448 64.9126339,24.5327561 69.1575637,24.5327561 C71.8697636,24.5327561 73.2846878,26.1097918 73.2846878,28.6798278 C73.2846878,30.1986623 72.7540912,32.5934721 71.8697636,35.3972468 C74.345881,30.4907578 77.2938493,28.621471 80.7135113,28.621471 C83.7202253,28.621471 85.4299778,30.5491147 85.4299778,33.3528894 C85.4299778,37.4999611 82.5999722,41.9394396 82.5999722,43.6917015 C82.5999722,43.9836414 82.7179349,44.1588676 82.9537033,44.1588676 C84.604553,44.1588676 88.9674455,35.9229254 90.6182951,28.0957924 C90.7362578,27.3948876 90.8540635,26.8106966 90.9720262,26.285018 C93.5073606,26.1097918 97.3394994,26.5187567 99.2261174,27.1613046 L99.2261174,27.6869832 C98.636618,32.0677936 96.6320373,40.3622482 96.6320373,42.8739274 C96.6320373,43.5748322 96.8678056,43.8084152 97.3394994,43.8084152 C99.8157739,43.8084152 105.947322,30.8412102 107.775037,27.6869832 C115.911322,28.2710186 121.04058,27.1613046 125.226607,24.299173 C126.405763,25.7009826 127.761784,27.3948876 129,28.7383403 L129,28.9135665 Z"></path> <filter id="logo-lumio-a" width="105.4%" height="114%" x="-1.9%" y="-5%" filterUnits="objectBoundingBox"> <feOffset dx="1" dy="1" in="SourceAlpha" result="shadowOffsetOuter1"></feOffset> <feGaussianBlur in="shadowOffsetOuter1" result="shadowBlurOuter1" stdDeviation="1"></feGaussianBlur> <feColorMatrix in="shadowBlurOuter1" values="0 0 0 0 0 0 0 0 0 0 0 0 0 0 0 0 0 0 0.265681612 0"></feColorMatrix> </filter> </defs> <g fill="none" fill-rule="evenodd" transform="translate(1 1)"> <use fill="#000" filter="url(#logo-lumio-a)" xlink:href="#logo-lumio-b"></use> <use fill="#FFF" xlink:href="#logo-lumio-b"></use> <path fill="#FFF" fill-rule="nonzero" d="M14.806,59.489 C15.2680023,59.489 15.6804982,59.6063322 16.0435,59.841 C16.4065018,60.0756678 16.6888323,60.4074979 16.8905,60.8365 C17.0921677,61.2655021 17.193,61.7586639 17.193,62.316 C17.193,62.8733361 17.0921677,63.3609979 16.8905,63.779 C16.6888323,64.1970021 16.4083351,64.5196655 16.049,64.747 C15.6896649,64.9743345 15.2753357,65.088 14.806,65.088 C14.4246648,65.088 14.0836682,65.0073341 13.783,64.846 C13.4823318,64.6846659 13.2513341,64.4610014 13.09,64.175 L13.09,66.419 C13.09,66.6096676 13.0276673,66.7599994 12.903,66.87 C12.7783327,66.9800005 12.6133344,67.035 12.408,67.035 C12.2026656,67.035 12.035834,66.9763339 11.9075,66.859 C11.779166,66.7416661 11.715,66.5876676 11.715,66.397 L11.715,60.16 C11.715,59.961999 11.7754994,59.8043339 11.8965,59.687 C12.0175006,59.5696661 12.1806656,59.511 12.386,59.511 C12.5913344,59.511 12.7563327,59.5696661 12.881,59.687 C13.0056673,59.8043339 13.068,59.961999 13.068,60.16 L13.068,60.435 C13.2293341,60.1343318 13.4621651,59.9015008 13.7665,59.7365 C14.0708349,59.5714992 14.4173314,59.489 14.806,59.489 Z M14.443,64.021 C14.8756688,64.021 15.2129988,63.8725015 15.455,63.5755 C15.6970012,63.2784985 15.818,62.8586694 15.818,62.316 C15.818,61.7586639 15.6970012,61.3260015 15.455,61.018 C15.2129988,60.7099985 14.8756688,60.556 14.443,60.556 C14.0029978,60.556 13.6638345,60.7063318 13.4255,61.007 C13.1871655,61.3076682 13.068,61.7366639 13.068,62.294 C13.068,62.8440028 13.1871655,63.2693318 13.4255,63.57 C13.6638345,63.8706682 14.0029978,64.021 14.443,64.021 Z M20.658,59.489 C21.4060037,59.489 21.9614982,59.6741648 22.3245,60.0445 C22.6875018,60.4148352 22.869,60.9776629 22.869,61.733 L22.869,64.417 C22.869,64.615001 22.8103339,64.7708328 22.693,64.8845 C22.5756661,64.9981672 22.4143344,65.055 22.209,65.055 C22.0183324,65.055 21.8625006,64.9963339 21.7415,64.879 C21.6204994,64.7616661 21.56,64.6076676 21.56,64.417 L21.56,64.175 C21.4353327,64.4610014 21.239168,64.6846659 20.9715,64.846 C20.703832,65.0073341 20.3940018,65.088 20.042,65.088 C19.6826649,65.088 19.3563348,65.0146674 19.063,64.868 C18.7696652,64.7213326 18.5386675,64.5196679 18.37,64.263 C18.2013325,64.006332 18.117,63.7203349 18.117,63.405 C18.117,63.008998 18.2178323,62.6973345 18.4195,62.47 C18.6211677,62.2426655 18.9493311,62.0776672 19.404,61.975 C19.8018353,61.8851662 20.3316068,61.8346353 20.9933271,61.8234062 L21.56,61.821 L21.56,61.568 C21.56,61.2086649 21.4830008,60.9465008 21.329,60.7815 C21.1749992,60.6164992 20.9256684,60.534 20.581,60.534 C20.3683323,60.534 20.1520011,60.5651664 19.932,60.6275 C19.7119989,60.6898336 19.4516682,60.7796661 19.151,60.897 C18.9603324,60.9923338 18.8210004,61.04 18.733,61.04 C18.6009993,61.04 18.4928338,60.9923338 18.4085,60.897 C18.3241662,60.8016662 18.282,60.6770008 18.282,60.523 C18.282,60.3983327 18.3131664,60.2901671 18.3755,60.1985 C18.4378336,60.1068329 18.5423326,60.0206671 18.689,59.94 C18.945668,59.800666 19.2518316,59.6906671 19.6075,59.61 C19.9631684,59.5293329 20.3133316,59.489 20.658,59.489 Z M20.317,64.098 C20.6836685,64.098 20.9824988,63.9751679 21.2135,63.7295 C21.4445012,63.4838321 21.56,63.1666686 21.56,62.778 L21.56,62.547 L21.362,62.547 C20.8706642,62.547 20.4893347,62.5689998 20.218,62.613 C19.9466653,62.6570002 19.7523339,62.7339994 19.635,62.844 C19.5176661,62.9540006 19.459,63.1043324 19.459,63.295 C19.459,63.5296678 19.5414992,63.7221659 19.7065,63.8725 C19.8715008,64.0228341 20.0749988,64.098 20.317,64.098 Z M27.269,59.511 C27.4596676,59.4963333 27.6099995,59.5366662 27.72,59.632 C27.8300005,59.7273338 27.885,59.8703324 27.885,60.061 C27.885,60.259001 27.8373338,60.4056662 27.742,60.501 C27.6466662,60.5963338 27.4743346,60.6586665 27.225,60.688 L26.895,60.721 C26.4623312,60.7650002 26.1451677,60.9116654 25.9435,61.161 C25.7418323,61.4103346 25.641,61.7219981 25.641,62.096 L25.641,64.406 C25.641,64.6186677 25.5750007,64.7818328 25.443,64.8955 C25.3109993,65.0091672 25.146001,65.066 24.948,65.066 C24.749999,65.066 24.586834,65.0091672 24.4585,64.8955 C24.330166,64.7818328 24.266,64.6186677 24.266,64.406 L24.266,60.149 C24.266,59.9436656 24.330166,59.7860005 24.4585,59.676 C24.586834,59.5659994 24.7463324,59.511 24.937,59.511 C25.1276676,59.511 25.2816661,59.5641661 25.399,59.6705 C25.5163339,59.7768339 25.575,59.928999 25.575,60.127 L25.575,60.567 C25.714334,60.2443317 25.9214986,59.9950009 26.1965,59.819 C26.4715014,59.6429991 26.777665,59.5440001 27.115,59.522 L27.269,59.511 Z M32.142,65.066 C31.943999,65.066 31.780834,65.0091672 31.6525,64.8955 C31.524166,64.7818328 31.46,64.6186677 31.46,64.406 L31.46,57.839 C31.46,57.6263323 31.524166,57.4650005 31.6525,57.355 C31.780834,57.2449995 31.943999,57.19 32.142,57.19 C32.340001,57.19 32.5049993,57.2449995 32.637,57.355 C32.7690007,57.4650005 32.835,57.6263323 32.835,57.839 L32.835,64.406 C32.835,64.6186677 32.7690007,64.7818328 32.637,64.8955 C32.5049993,65.0091672 32.340001,65.066 32.142,65.066 Z M38.511,63.526 C38.6356673,63.526 38.7364996,63.5736662 38.8135,63.669 C38.8905004,63.7643338 38.929,63.8926659 38.929,64.054 C38.929,64.2813345 38.7933347,64.4719992 38.522,64.626 C38.2726654,64.765334 37.9903349,64.8771662 37.675,64.9615 C37.3596651,65.0458338 37.0590014,65.088 36.773,65.088 C35.9076623,65.088 35.2220025,64.8386692 34.716,64.34 C34.2099975,63.8413308 33.957,63.1593377 33.957,62.294 C33.957,61.7439972 34.0669989,61.2563355 34.287,60.831 C34.5070011,60.4056645 34.8168313,60.0756678 35.2165,59.841 C35.6161687,59.6063322 36.0689975,59.489 36.575,59.489 C37.0590024,59.489 37.4806649,59.5953323 37.84,59.808 C38.1993351,60.0206677 38.477999,60.3213314 38.676,60.71 C38.874001,61.0986686 38.973,61.5569974 38.973,62.085 C38.973,62.4003349 38.8336681,62.558 38.555,62.558 L35.31,62.558 C35.3540002,63.0640025 35.4969988,63.4361655 35.739,63.6745 C35.9810012,63.9128345 36.3329977,64.032 36.795,64.032 C37.0296678,64.032 37.2368324,64.002667 37.4165,63.944 C37.5961676,63.885333 37.7996655,63.8046672 38.027,63.702 C38.2470011,63.5846661 38.4083328,63.526 38.511,63.526 Z M36.608,60.457 C36.2339981,60.457 35.9351678,60.5743322 35.7115,60.809 C35.4878322,61.0436678 35.3540002,61.3809978 35.31,61.821 L37.796,61.821 C37.7813333,61.3736644 37.6713344,61.0345012 37.466,60.8035 C37.2606656,60.5724988 36.9746685,60.457 36.608,60.457 Z M42.042,65.088 C41.2426627,65.088 40.5973358,64.9303349 40.106,64.615 C39.8713322,64.475666 39.754,64.2776679 39.754,64.021 C39.754,63.8743326 39.7943329,63.7551671 39.875,63.6635 C39.9556671,63.5718329 40.0546661,63.526 40.172,63.526 C40.2966673,63.526 40.4689989,63.5846661 40.689,63.702 C40.9236678,63.8120006 41.1381657,63.896333 41.3325,63.955 C41.5268343,64.013667 41.7743318,64.043 42.075,64.043 C42.3830015,64.043 42.6231658,63.9916672 42.7955,63.889 C42.9678342,63.7863328 43.054,63.6433343 43.054,63.46 C43.054,63.3353327 43.019167,63.2363337 42.9495,63.163 C42.879833,63.0896663 42.7551676,63.0218336 42.5755,62.9595 C42.4557216,62.9179442 42.2943893,62.8723149 42.0915006,62.8226112 L41.756,62.745 C41.1033301,62.6129993 40.6358347,62.4260012 40.3535,62.184 C40.0711653,61.9419988 39.93,61.6083355 39.93,61.183 C39.93,60.8603317 40.0253324,60.5688346 40.216,60.3085 C40.4066676,60.0481654 40.6688317,59.8465007 41.0025,59.7035 C41.3361683,59.5604993 41.7156645,59.489 42.141,59.489 C42.4490015,59.489 42.7459986,59.5274996 43.032,59.6045 C43.3180014,59.6815004 43.5746655,59.7933326 43.802,59.94 C44.0366678,60.0866674 44.154,60.2809988 44.154,60.523 C44.154,60.6696674 44.1136671,60.7924995 44.033,60.8915 C43.9523329,60.9905005 43.8533339,61.04 43.736,61.04 C43.6553329,61.04 43.5765004,61.0235002 43.4995,60.9905 C43.4224996,60.9574998 43.3253339,60.9080003 43.208,60.842 C42.9953323,60.7319995 42.8120008,60.6495003 42.658,60.5945 C42.5039992,60.5394997 42.3133345,60.512 42.086,60.512 C41.8146653,60.512 41.6001675,60.5669994 41.4425,60.677 C41.2848325,60.7870006 41.206,60.9373324 41.206,61.128 C41.206,61.3113343 41.2866659,61.4506662 41.448,61.546 C41.5862864,61.6277147 41.8350189,61.7094283 42.1942034,61.7911427 L42.383,61.832 C42.8743358,61.9346672 43.2593319,62.0519993 43.538,62.184 C43.8166681,62.3160007 44.0164994,62.480999 44.1375,62.679 C44.2585006,62.877001 44.319,63.1299985 44.319,63.438 C44.319,63.9366692 44.1118354,64.3363318 43.6975,64.637 C43.2831646,64.9376682 42.7313368,65.088 42.042,65.088 Z M49.214,65 C49.0013323,65 48.8345006,64.9413339 48.7135,64.824 C48.5924994,64.7066661 48.532,64.5416677 48.532,64.329 L48.532,57.916 C48.532,57.7033323 48.5924994,57.5383339 48.7135,57.421 C48.8345006,57.3036661 49.0013323,57.245 49.214,57.245 L53.185,57.245 C53.3976677,57.245 53.5626661,57.2926662 53.68,57.388 C53.7973339,57.4833338 53.856,57.6189991 53.856,57.795 C53.856,57.9783343 53.7973339,58.1194995 53.68,58.2185 C53.5626661,58.3175005 53.3976677,58.367 53.185,58.367 L49.918,58.367 L49.918,60.501 L52.965,60.501 C53.1776677,60.501 53.3426661,60.5486662 53.46,60.644 C53.5773339,60.7393338 53.636,60.8786657 53.636,61.062 C53.636,61.2380009 53.5773339,61.3736662 53.46,61.469 C53.3426661,61.5643338 53.1776677,61.612 52.965,61.612 L49.918,61.612 L49.918,63.878 L53.185,63.878 C53.3976677,63.878 53.5626661,63.9274995 53.68,64.0265 C53.7973339,64.1255005 53.856,64.2666658 53.856,64.45 C53.856,64.6260009 53.7973339,64.7616662 53.68,64.857 C53.5626661,64.9523338 53.3976677,65 53.185,65 L49.214,65 Z M51.48,56.596 C51.421333,56.6253335 51.362667,56.64 51.304,56.64 C51.2086662,56.64 51.1280003,56.6088336 51.062,56.5465 C50.9959997,56.4841664 50.963,56.4126671 50.963,56.332 C50.963,56.2513329 51.0033329,56.1706671 51.084,56.09 L52.085,55.056 C52.224334,54.9093326 52.3819991,54.836 52.558,54.836 C52.7046674,54.836 52.8311661,54.8891661 52.9375,54.9955 C53.0438339,55.1018339 53.097,55.224666 53.097,55.364 C53.097,55.4593338 53.0658336,55.5509996 53.0035,55.639 C52.9567498,55.7050003 52.892469,55.7648125 52.8106565,55.8184374 L51.48,56.596 Z M59.378,57.19 C59.5833344,57.19 59.7519993,57.2486661 59.884,57.366 C60.0160007,57.4833339 60.082,57.6373324 60.082,57.828 L60.082,64.406 C60.082,64.604001 60.0196673,64.7616661 59.895,64.879 C59.7703327,64.9963339 59.6053344,65.055 59.4,65.055 C59.1946656,65.055 59.0296673,64.9963339 58.905,64.879 C58.7803327,64.7616661 58.718,64.604001 58.718,64.406 L58.718,64.131 C58.5566659,64.4316682 58.3238349,64.6663325 58.0195,64.835 C57.7151651,65.0036675 57.3686686,65.088 56.98,65.088 C56.5179977,65.088 56.1055018,64.9706678 55.7425,64.736 C55.3794982,64.5013322 55.0971677,64.1695021 54.8955,63.7405 C54.6938323,63.3114979 54.593,62.8183361 54.593,62.261 C54.593,61.7036639 54.6938323,61.2160021 54.8955,60.798 C55.0971677,60.3799979 55.3776649,60.0573345 55.737,59.83 C56.0963351,59.6026655 56.5106643,59.489 56.98,59.489 C57.3686686,59.489 57.7133318,59.5696659 58.014,59.731 C58.3146682,59.8923341 58.5456659,60.1196652 58.707,60.413 L58.707,57.806 C58.707,57.6226658 58.7674994,57.4741672 58.8885,57.3605 C59.0095006,57.2468328 59.1726656,57.19 59.378,57.19 Z M57.343,64.021 C57.7830022,64.021 58.1221655,63.8706682 58.3605,63.57 C58.5988345,63.2693318 58.718,62.8403361 58.718,62.283 C58.718,61.7256639 58.5988345,61.2985015 58.3605,61.0015 C58.1221655,60.7044985 57.7866688,60.556 57.354,60.556 C56.9139978,60.556 56.5730012,60.7026652 56.331,60.996 C56.0889988,61.2893348 55.968,61.7109972 55.968,62.261 C55.968,62.8183361 56.0889988,63.2509985 56.331,63.559 C56.5730012,63.8670015 56.9103312,64.021 57.343,64.021 Z M62.183,65.066 C61.984999,65.066 61.821834,65.0091672 61.6935,64.8955 C61.565166,64.7818328 61.501,64.6186677 61.501,64.406 L61.501,60.16 C61.501,59.9473323 61.565166,59.7860005 61.6935,59.676 C61.821834,59.5659994 61.984999,59.511 62.183,59.511 C62.381001,59.511 62.5459993,59.5659994 62.678,59.676 C62.8100007,59.7860005 62.876,59.9473323 62.876,60.16 L62.876,64.406 C62.876,64.6186677 62.8100007,64.7818328 62.678,64.8955 C62.5459993,65.0091672 62.381001,65.066 62.183,65.066 Z M62.183,58.532 C61.9336654,58.532 61.7356674,58.4641673 61.589,58.3285 C61.4423326,58.1928327 61.369,58.0150011 61.369,57.795 C61.369,57.5749989 61.4423326,57.3990007 61.589,57.267 C61.7356674,57.1349993 61.9336654,57.069 62.183,57.069 C62.4250012,57.069 62.6211659,57.1349993 62.7715,57.267 C62.9218341,57.3990007 62.997,57.5749989 62.997,57.795 C62.997,58.0150011 62.9236674,58.1928327 62.777,58.3285 C62.6303326,58.4641673 62.4323346,58.532 62.183,58.532 Z M67.089,64.043 C67.4556685,64.0650001 67.639,64.2299985 67.639,64.538 C67.639,64.7140009 67.5675007,64.8478329 67.4245,64.9395 C67.2814993,65.0311671 67.0780013,65.0696667 66.814,65.055 L66.517,65.033 C65.2849938,64.9449996 64.669,64.2850062 64.669,63.053 L64.669,60.655 L64.119,60.655 C63.920999,60.655 63.7688339,60.6110004 63.6625,60.523 C63.5561661,60.4349996 63.503,60.3066675 63.503,60.138 C63.503,59.9693325 63.5561661,59.8410004 63.6625,59.753 C63.7688339,59.6649996 63.920999,59.621 64.119,59.621 L64.669,59.621 L64.669,58.609 C64.669,58.410999 64.7313327,58.2533339 64.856,58.136 C64.9806673,58.0186661 65.1493323,57.96 65.362,57.96 C65.5673344,57.96 65.7323327,58.0186661 65.857,58.136 C65.9816673,58.2533339 66.044,58.410999 66.044,58.609 L66.044,59.621 L66.979,59.621 C67.177001,59.621 67.3291661,59.6649996 67.4355,59.753 C67.5418339,59.8410004 67.595,59.9693325 67.595,60.138 C67.595,60.3066675 67.5418339,60.4349996 67.4355,60.523 C67.3291661,60.6110004 67.177001,60.655 66.979,60.655 L66.044,60.655 L66.044,63.152 C66.044,63.6946694 66.2933308,63.9843331 66.792,64.021 L67.089,64.043 Z M69.036,65.066 C68.837999,65.066 68.674834,65.0091672 68.5465,64.8955 C68.418166,64.7818328 68.354,64.6186677 68.354,64.406 L68.354,60.16 C68.354,59.9473323 68.418166,59.7860005 68.5465,59.676 C68.674834,59.5659994 68.837999,59.511 69.036,59.511 C69.234001,59.511 69.3989993,59.5659994 69.531,59.676 C69.6630007,59.7860005 69.729,59.9473323 69.729,60.16 L69.729,64.406 C69.729,64.6186677 69.6630007,64.7818328 69.531,64.8955 C69.3989993,65.0091672 69.234001,65.066 69.036,65.066 Z M69.036,58.532 C68.7866654,58.532 68.5886674,58.4641673 68.442,58.3285 C68.2953326,58.1928327 68.222,58.0150011 68.222,57.795 C68.222,57.5749989 68.2953326,57.3990007 68.442,57.267 C68.5886674,57.1349993 68.7866654,57.069 69.036,57.069 C69.2780012,57.069 69.4741659,57.1349993 69.6245,57.267 C69.7748341,57.3990007 69.85,57.5749989 69.85,57.795 C69.85,58.0150011 69.7766674,58.1928327 69.63,58.3285 C69.4833326,58.4641673 69.2853346,58.532 69.036,58.532 Z M73.601,65.088 C73.0509972,65.088 72.5688354,64.9743345 72.1545,64.747 C71.7401646,64.5196655 71.4193345,64.1933355 71.192,63.768 C70.9646655,63.3426645 70.851,62.8476695 70.851,62.283 C70.851,61.7183305 70.9646655,61.2251688 71.192,60.8035 C71.4193345,60.3818312 71.7401646,60.0573345 72.1545,59.83 C72.5688354,59.6026655 73.0509972,59.489 73.601,59.489 C74.1510027,59.489 74.6331646,59.6026655 75.0475,59.83 C75.4618354,60.0573345 75.7808322,60.3818312 76.0045,60.8035 C76.2281678,61.2251688 76.34,61.7183305 76.34,62.283 C76.34,62.8476695 76.2281678,63.3426645 76.0045,63.768 C75.7808322,64.1933355 75.4618354,64.5196655 75.0475,64.747 C74.6331646,64.9743345 74.1510027,65.088 73.601,65.088 Z M73.59,64.021 C74.0373356,64.021 74.3783322,63.8743348 74.613,63.581 C74.8476678,63.2876652 74.965,62.8550029 74.965,62.283 C74.965,61.7183305 74.8476678,61.2875015 74.613,60.9905 C74.3783322,60.6934985 74.0410022,60.545 73.601,60.545 C73.1609978,60.545 72.8218345,60.6934985 72.5835,60.9905 C72.3451655,61.2875015 72.226,61.7183305 72.226,62.283 C72.226,62.8550029 72.3433322,63.2876652 72.578,63.581 C72.8126678,63.8743348 73.1499978,64.021 73.59,64.021 Z M80.597,59.489 C81.2423366,59.489 81.7226651,59.6723315 82.038,60.039 C82.3533349,60.4056685 82.511,60.9593296 82.511,61.7 L82.511,64.406 C82.511,64.6113344 82.4505006,64.7726661 82.3295,64.89 C82.2084994,65.0073339 82.0416677,65.066 81.829,65.066 C81.6163323,65.066 81.4476673,65.0073339 81.323,64.89 C81.1983327,64.7726661 81.136,64.6113344 81.136,64.406 L81.136,61.777 C81.136,61.3589979 81.0571675,61.0546676 80.8995,60.864 C80.7418325,60.6733324 80.494335,60.578 80.157,60.578 C79.760998,60.578 79.4438345,60.7026654 79.2055,60.952 C78.9671655,61.2013346 78.848,61.5349979 78.848,61.953 L78.848,64.406 C78.848,64.6113344 78.7856673,64.7726661 78.661,64.89 C78.5363327,65.0073339 78.3676677,65.066 78.155,65.066 C77.9423323,65.066 77.7755006,65.0073339 77.6545,64.89 C77.5334994,64.7726661 77.473,64.6113344 77.473,64.406 L77.473,60.149 C77.473,59.9583324 77.5353327,59.8043339 77.66,59.687 C77.7846673,59.5696661 77.9533323,59.511 78.166,59.511 C78.3566676,59.511 78.5124994,59.5678328 78.6335,59.6815 C78.7545006,59.7951672 78.815,59.9436658 78.815,60.127 L78.815,60.424 C78.9983342,60.1233318 79.2439985,59.8923341 79.552,59.731 C79.8600015,59.5696659 80.2083314,59.489 80.597,59.489 Z M85.855,65.088 C85.0556627,65.088 84.4103358,64.9303349 83.919,64.615 C83.6843322,64.475666 83.567,64.2776679 83.567,64.021 C83.567,63.8743326 83.6073329,63.7551671 83.688,63.6635 C83.7686671,63.5718329 83.8676661,63.526 83.985,63.526 C84.1096673,63.526 84.2819989,63.5846661 84.502,63.702 C84.7366678,63.8120006 84.9511657,63.896333 85.1455,63.955 C85.3398343,64.013667 85.5873318,64.043 85.888,64.043 C86.1960015,64.043 86.4361658,63.9916672 86.6085,63.889 C86.7808342,63.7863328 86.867,63.6433343 86.867,63.46 C86.867,63.3353327 86.832167,63.2363337 86.7625,63.163 C86.692833,63.0896663 86.5681676,63.0218336 86.3885,62.9595 C86.2687216,62.9179442 86.1073893,62.8723149 85.9045006,62.8226112 L85.569,62.745 C84.9163301,62.6129993 84.4488347,62.4260012 84.1665,62.184 C83.8841653,61.9419988 83.743,61.6083355 83.743,61.183 C83.743,60.8603317 83.8383324,60.5688346 84.029,60.3085 C84.2196676,60.0481654 84.4818317,59.8465007 84.8155,59.7035 C85.1491683,59.5604993 85.5286645,59.489 85.954,59.489 C86.2620015,59.489 86.5589986,59.5274996 86.845,59.6045 C87.1310014,59.6815004 87.3876655,59.7933326 87.615,59.94 C87.8496678,60.0866674 87.967,60.2809988 87.967,60.523 C87.967,60.6696674 87.9266671,60.7924995 87.846,60.8915 C87.7653329,60.9905005 87.6663339,61.04 87.549,61.04 C87.4683329,61.04 87.3895004,61.0235002 87.3125,60.9905 C87.2354996,60.9574998 87.1383339,60.9080003 87.021,60.842 C86.8083323,60.7319995 86.6250008,60.6495003 86.471,60.5945 C86.3169992,60.5394997 86.1263345,60.512 85.899,60.512 C85.6276653,60.512 85.4131675,60.5669994 85.2555,60.677 C85.0978325,60.7870006 85.019,60.9373324 85.019,61.128 C85.019,61.3113343 85.0996659,61.4506662 85.261,61.546 C85.3992864,61.6277147 85.6480189,61.7094283 86.0072034,61.7911427 L86.196,61.832 C86.6873358,61.9346672 87.0723319,62.0519993 87.351,62.184 C87.6296681,62.3160007 87.8294994,62.480999 87.9505,62.679 C88.0715006,62.877001 88.132,63.1299985 88.132,63.438 C88.132,63.9366692 87.9248354,64.3363318 87.5105,64.637 C87.0961646,64.9376682 86.5443368,65.088 85.855,65.088 Z M94.886,65.055 C94.6659989,65.055 94.491834,64.990834 94.3635,64.8625 C94.235166,64.734166 94.171,64.5636677 94.171,64.351 L94.171,58.411 L92.169,58.411 C91.7289978,58.411 91.509,58.2166686 91.509,57.828 C91.509,57.4393314 91.7289978,57.245 92.169,57.245 L97.592,57.245 C98.0320022,57.245 98.252,57.4393314 98.252,57.828 C98.252,58.2166686 98.0320022,58.411 97.592,58.411 L95.59,58.411 L95.59,64.351 C95.59,64.5636677 95.525834,64.734166 95.3975,64.8625 C95.269166,64.990834 95.0986677,65.055 94.886,65.055 Z M99.649,65.066 C99.450999,65.066 99.287834,65.0091672 99.1595,64.8955 C99.031166,64.7818328 98.967,64.6186677 98.967,64.406 L98.967,60.16 C98.967,59.9473323 99.031166,59.7860005 99.1595,59.676 C99.287834,59.5659994 99.450999,59.511 99.649,59.511 C99.847001,59.511 100.011999,59.5659994 100.144,59.676 C100.276001,59.7860005 100.342,59.9473323 100.342,60.16 L100.342,64.406 C100.342,64.6186677 100.276001,64.7818328 100.144,64.8955 C100.011999,65.0091672 99.847001,65.066 99.649,65.066 Z M99.649,58.532 C99.3996654,58.532 99.2016674,58.4641673 99.055,58.3285 C98.9083326,58.1928327 98.835,58.0150011 98.835,57.795 C98.835,57.5749989 98.9083326,57.3990007 99.055,57.267 C99.2016674,57.1349993 99.3996654,57.069 99.649,57.069 C99.8910012,57.069 100.087166,57.1349993 100.2375,57.267 C100.387834,57.3990007 100.463,57.5749989 100.463,57.795 C100.463,58.0150011 100.389667,58.1928327 100.243,58.3285 C100.096333,58.4641673 99.8983346,58.532 99.649,58.532 Z M103.708,65.088 C102.908663,65.088 102.263336,64.9303349 101.772,64.615 C101.537332,64.475666 101.42,64.2776679 101.42,64.021 C101.42,63.8743326 101.460333,63.7551671 101.541,63.6635 C101.621667,63.5718329 101.720666,63.526 101.838,63.526 C101.962667,63.526 102.134999,63.5846661 102.355,63.702 C102.589668,63.8120006 102.804166,63.896333 102.9985,63.955 C103.192834,64.013667 103.440332,64.043 103.741,64.043 C104.049002,64.043 104.289166,63.9916672 104.4615,63.889 C104.633834,63.7863328 104.72,63.6433343 104.72,63.46 C104.72,63.3353327 104.685167,63.2363337 104.6155,63.163 C104.545833,63.0896663 104.421168,63.0218336 104.2415,62.9595 C104.121722,62.9179442 103.960389,62.8723149 103.757501,62.8226112 L103.422,62.745 C102.76933,62.6129993 102.301835,62.4260012 102.0195,62.184 C101.737165,61.9419988 101.596,61.6083355 101.596,61.183 C101.596,60.8603317 101.691332,60.5688346 101.882,60.3085 C102.072668,60.0481654 102.334832,59.8465007 102.6685,59.7035 C103.002168,59.5604993 103.381665,59.489 103.807,59.489 C104.115002,59.489 104.411999,59.5274996 104.698,59.6045 C104.984001,59.6815004 105.240666,59.7933326 105.468,59.94 C105.702668,60.0866674 105.82,60.2809988 105.82,60.523 C105.82,60.6696674 105.779667,60.7924995 105.699,60.8915 C105.618333,60.9905005 105.519334,61.04 105.402,61.04 C105.321333,61.04 105.2425,61.0235002 105.1655,60.9905 C105.0885,60.9574998 104.991334,60.9080003 104.874,60.842 C104.661332,60.7319995 104.478001,60.6495003 104.324,60.5945 C104.169999,60.5394997 103.979334,60.512 103.752,60.512 C103.480665,60.512 103.266167,60.5669994 103.1085,60.677 C102.950833,60.7870006 102.872,60.9373324 102.872,61.128 C102.872,61.3113343 102.952666,61.4506662 103.114,61.546 C103.252286,61.6277147 103.501019,61.7094283 103.860203,61.7911427 L104.049,61.832 C104.540336,61.9346672 104.925332,62.0519993 105.204,62.184 C105.482668,62.3160007 105.682499,62.480999 105.8035,62.679 C105.924501,62.877001 105.985,63.1299985 105.985,63.438 C105.985,63.9366692 105.777835,64.3363318 105.3635,64.637 C104.949165,64.9376682 104.397337,65.088 103.708,65.088 Z M109.043,65.088 C108.243663,65.088 107.598336,64.9303349 107.107,64.615 C106.872332,64.475666 106.755,64.2776679 106.755,64.021 C106.755,63.8743326 106.795333,63.7551671 106.876,63.6635 C106.956667,63.5718329 107.055666,63.526 107.173,63.526 C107.297667,63.526 107.469999,63.5846661 107.69,63.702 C107.924668,63.8120006 108.139166,63.896333 108.3335,63.955 C108.527834,64.013667 108.775332,64.043 109.076,64.043 C109.384002,64.043 109.624166,63.9916672 109.7965,63.889 C109.968834,63.7863328 110.055,63.6433343 110.055,63.46 C110.055,63.3353327 110.020167,63.2363337 109.9505,63.163 C109.880833,63.0896663 109.756168,63.0218336 109.5765,62.9595 C109.456722,62.9179442 109.295389,62.8723149 109.092501,62.8226112 L108.757,62.745 C108.10433,62.6129993 107.636835,62.4260012 107.3545,62.184 C107.072165,61.9419988 106.931,61.6083355 106.931,61.183 C106.931,60.8603317 107.026332,60.5688346 107.217,60.3085 C107.407668,60.0481654 107.669832,59.8465007 108.0035,59.7035 C108.337168,59.5604993 108.716665,59.489 109.142,59.489 C109.450002,59.489 109.746999,59.5274996 110.033,59.6045 C110.319001,59.6815004 110.575666,59.7933326 110.803,59.94 C111.037668,60.0866674 111.155,60.2809988 111.155,60.523 C111.155,60.6696674 111.114667,60.7924995 111.034,60.8915 C110.953333,60.9905005 110.854334,61.04 110.737,61.04 C110.656333,61.04 110.5775,61.0235002 110.5005,60.9905 C110.4235,60.9574998 110.326334,60.9080003 110.209,60.842 C109.996332,60.7319995 109.813001,60.6495003 109.659,60.5945 C109.504999,60.5394997 109.314334,60.512 109.087,60.512 C108.815665,60.512 108.601167,60.5669994 108.4435,60.677 C108.285833,60.7870006 108.207,60.9373324 108.207,61.128 C108.207,61.3113343 108.287666,61.4506662 108.449,61.546 C108.587286,61.6277147 108.836019,61.7094283 109.195203,61.7911427 L109.384,61.832 C109.875336,61.9346672 110.260332,62.0519993 110.539,62.184 C110.817668,62.3160007 111.017499,62.480999 111.1385,62.679 C111.259501,62.877001 111.32,63.1299985 111.32,63.438 C111.32,63.9366692 111.112835,64.3363318 110.6985,64.637 C110.284165,64.9376682 109.732337,65.088 109.043,65.088 Z M114.884,65.088 C114.333997,65.088 113.851835,64.9743345 113.4375,64.747 C113.023165,64.5196655 112.702334,64.1933355 112.475,63.768 C112.247666,63.3426645 112.134,62.8476695 112.134,62.283 C112.134,61.7183305 112.247666,61.2251688 112.475,60.8035 C112.702334,60.3818312 113.023165,60.0573345 113.4375,59.83 C113.851835,59.6026655 114.333997,59.489 114.884,59.489 C115.434003,59.489 115.916165,59.6026655 116.3305,59.83 C116.744835,60.0573345 117.063832,60.3818312 117.2875,60.8035 C117.511168,61.2251688 117.623,61.7183305 117.623,62.283 C117.623,62.8476695 117.511168,63.3426645 117.2875,63.768 C117.063832,64.1933355 116.744835,64.5196655 116.3305,64.747 C115.916165,64.9743345 115.434003,65.088 114.884,65.088 Z M114.873,64.021 C115.320336,64.021 115.661332,63.8743348 115.896,63.581 C116.130668,63.2876652 116.248,62.8550029 116.248,62.283 C116.248,61.7183305 116.130668,61.2875015 115.896,60.9905 C115.661332,60.6934985 115.324002,60.545 114.884,60.545 C114.443998,60.545 114.104835,60.6934985 113.8665,60.9905 C113.628165,61.2875015 113.509,61.7183305 113.509,62.283 C113.509,62.8550029 113.626332,63.2876652 113.861,63.581 C114.095668,63.8743348 114.432998,64.021 114.873,64.021 Z M121.55,64.043 C121.916668,64.0650001 122.1,64.2299985 122.1,64.538 C122.1,64.7140009 122.028501,64.8478329 121.8855,64.9395 C121.742499,65.0311671 121.539001,65.0696667 121.275,65.055 L120.978,65.033 C119.745994,64.9449996 119.13,64.2850062 119.13,63.053 L119.13,60.655 L118.58,60.655 C118.381999,60.655 118.229834,60.6110004 118.1235,60.523 C118.017166,60.4349996 117.964,60.3066675 117.964,60.138 C117.964,59.9693325 118.017166,59.8410004 118.1235,59.753 C118.229834,59.6649996 118.381999,59.621 118.58,59.621 L119.13,59.621 L119.13,58.609 C119.13,58.410999 119.192333,58.2533339 119.317,58.136 C119.441667,58.0186661 119.610332,57.96 119.823,57.96 C120.028334,57.96 120.193333,58.0186661 120.318,58.136 C120.442667,58.2533339 120.505,58.410999 120.505,58.609 L120.505,59.621 L121.44,59.621 C121.638001,59.621 121.790166,59.6649996 121.8965,59.753 C122.002834,59.8410004 122.056,59.9693325 122.056,60.138 C122.056,60.3066675 122.002834,60.4349996 121.8965,60.523 C121.790166,60.6110004 121.638001,60.655 121.44,60.655 L120.505,60.655 L120.505,63.152 C120.505,63.6946694 120.754331,63.9843331 121.253,64.021 L121.55,64.043 Z"></path> </g>
</svg>